<svg width="727" height="674" viewBox="0 0 727 674" fill="none" xmlns="http://www.w3.org/2000/svg">
<path fill-rule="evenodd" clip-rule="evenodd" d="M274.441 0.247006C274.166 0.520006 268.541 1.01601 261.941 1.34901C243.059 2.30101 214.985 6.72401 196.941 11.589C172.999 18.044 149.057 27.561 133.761 36.703C129.812 39.063 126.338 40.994 126.041 40.994C125.302 40.994 110.365 51.13 108.358 52.994C107.469 53.819 105.871 55.169 104.807 55.994C69.2024 83.599 41.3604 125.485 23.8754 177.752C16.4234 200.026 8.87242 231.645 6.98142 248.494C6.61042 251.794 5.92543 256.069 5.45943 257.994C4.99243 259.919 4.35942 264.194 4.05241 267.494C3.74441 270.794 2.74043 280.919 1.82143 289.994C-0.554573 313.448 -0.617575 365.427 1.70043 388.994C4.19042 414.313 8.77242 439.367 13.9524 455.994C21.6494 480.699 33.3724 509.17 39.9874 519.223C41.3374 521.273 42.4414 523.336 42.4414 523.807C42.4414 524.277 44.2414 527.232 46.4414 530.373C48.6414 533.513 50.4414 536.405 50.4414 536.798C50.4414 537.191 54.7274 542.909 59.9654 549.503C75.2844 568.789 93.4874 586.303 111.583 599.171C112.88 600.093 116.191 602.456 118.941 604.422C127.813 610.763 130.914 612.702 142.528 619.163C155.696 626.489 174.571 635.523 178.941 636.592C181.674 637.261 181.817 637.176 180.548 635.636C178.865 633.593 179.826 632.239 181.797 633.875C183.612 635.381 184.359 578.534 184.845 401.994C185.052 326.803 185.634 268.396 186.279 257.994C188.261 226.035 188.368 222.713 188.509 188.494L188.65 154.494L179.198 153.867C165.044 152.928 162.538 150.513 161.691 136.994C161.012 126.156 162.407 122.257 170.236 113.122C178.638 103.319 182.627 100.417 190.466 98.409C197.349 96.646 200.916 97 208.148 100.167C212.575 102.106 222.471 111.1 224.982 115.468C225.98 117.205 226.652 117.211 241.482 115.631C269.87 112.607 292.774 111.733 327.941 112.331C359.419 112.866 367.582 113.3 397.941 116.052C408.172 116.979 419.396 118.544 433.941 121.071C442.795 122.609 471.094 129.602 480.641 132.611C511.944 142.476 539.93 157.688 558.059 174.693C575.305 190.87 586.202 211.684 588.057 231.994C588.632 238.291 586.298 256.276 584.432 259.921C583.989 260.786 582.2 264.839 580.456 268.927C576.816 277.459 573.465 282.591 565.454 291.899C547.675 312.556 531.06 324.884 500.374 340.188C476.585 352.052 466.817 356.17 450.941 361.03C448.741 361.704 446.491 362.593 445.941 363.007C444.294 364.245 414.823 373.615 401.941 376.997C395.341 378.729 389.605 380.471 389.193 380.868C388.612 381.429 417.497 420.998 428.818 435.148C429.986 436.607 434.541 442.794 438.941 448.897C443.341 455 449.686 463.481 453.04 467.744C456.394 472.006 459.837 476.844 460.689 478.494C461.542 480.144 463.41 482.755 464.84 484.296C466.271 485.836 467.441 487.382 467.441 487.731C467.441 488.08 468.286 489.294 469.319 490.43C471.41 492.729 490.677 521.238 494.367 527.494C495.665 529.694 498.076 533.969 499.724 536.994C501.373 540.019 503.25 543.169 503.896 543.994C504.541 544.819 509.384 554.044 514.657 564.494C523.234 581.491 528.044 591.656 537.607 612.994C546.662 633.198 554.096 647.985 555.2 647.989C556.215 647.993 587.652 632.854 592.137 630.201C614.146 617.187 645.146 589.17 660.672 568.262C669.014 557.027 674.441 549.259 674.441 548.552C674.441 548.282 676.264 545.24 678.493 541.792C682.503 535.588 692.922 514.754 695.395 507.994C696.099 506.069 697.259 503.144 697.972 501.494C706.376 482.04 717.135 439.523 720.871 410.994C728.13 355.573 727.975 305.187 720.389 254.494C715.972 224.972 705.73 191.938 693.017 166.208C689.95 160.001 687.441 154.713 687.441 154.457C687.441 153.725 678.2 139.336 671.825 130.141C660.619 113.978 641.103 92.943 627.941 82.839C626.291 81.573 624.315 79.934 623.551 79.196C622.786 78.459 620.986 77.104 619.551 76.185C618.115 75.266 615.043 73.084 612.724 71.338C607.059 67.071 589.127 56.376 577.441 50.294C557.769 40.056 524.658 27.101 507.941 23.101C505.741 22.574 499.666 21.014 494.441 19.633C479.829 15.771 460.528 11.799 445.441 9.55001C422.691 6.15901 398.55 3.60301 373.441 1.92801C356.723 0.812006 275.265 -0.570994 274.441 0.247006ZM268.941 138.025C255.303 138.788 232.26 140.821 231.817 141.299C231.718 141.406 231.03 155.669 230.289 172.994C228.816 207.404 228.479 310.115 229.682 357.994C230.089 374.219 230.714 447.169 231.071 520.105L231.719 652.716L236.83 654.293C243.825 656.452 275.14 663.798 284.941 665.58C323.04 672.507 348.174 674.46 389.553 673.709C422.88 673.104 454.872 670.192 473.941 666.027C478.891 664.946 484.741 663.792 486.941 663.461C491.141 662.831 512.69 657.879 513.288 657.407C513.48 657.256 512.959 655.864 512.133 654.313C511.306 652.763 505.996 642.044 500.332 630.494C490.221 609.875 469.392 571.487 467.507 569.994C467.159 569.719 464.907 566.119 462.502 561.994C457.599 553.585 444.627 533.899 439.382 526.908C437.489 524.385 433.587 518.985 430.71 514.908C423.842 505.173 419.623 499.542 403.441 478.516C396.016 468.868 387.916 458.336 385.441 455.11C382.966 451.884 378.016 445.535 374.441 441.002C370.866 436.468 367.491 432.059 366.941 431.205C365.459 428.903 364.156 427.206 357.954 419.494C354.857 415.644 349.949 409.344 347.047 405.494C344.144 401.644 340.008 396.58 337.855 394.24L333.941 389.987L321.941 391.093C309.173 392.269 288.205 391.688 277.441 389.859C268.136 388.277 260.574 384.515 258.884 380.625C257.614 377.703 257.686 377.359 259.96 375.474C264.41 371.786 279.088 367.1 310.179 359.443C327.098 355.276 343.866 351.032 347.441 350.011C351.016 348.99 358.441 346.935 363.941 345.444C375.385 342.343 394.977 336.385 397.941 335.106C399.041 334.632 403.991 332.809 408.941 331.055C413.891 329.301 418.841 327.473 419.941 326.993C421.041 326.512 426.216 324.464 431.441 322.441C436.666 320.418 442.516 317.938 444.441 316.93C446.366 315.922 450.191 314.129 452.941 312.946C460.898 309.522 471.598 303.981 475.941 301.037C478.141 299.545 483.199 296.224 487.181 293.658C495.95 288.006 496.531 287.537 507.095 277.592C524.958 260.777 532.705 242.841 529.695 225.269C527.377 211.734 517.836 197.743 504.059 187.676C482.747 172.103 459.483 161.899 423.941 152.535C383.338 141.838 315.034 135.444 268.941 138.025Z" fill="#C74E59"/>
</svg>
